<?xml version="1.0" encoding="UTF-8"?>
<svg id="Layer_2" data-name="Layer 2" xmlns="http://www.w3.org/2000/svg" viewBox="0 0 516.61 457.42">
  <defs>
    <style>
      .cls-1 {
        fill: #572e12;
      }

      .cls-2 {
        fill: #fff;
      }

      .cls-3 {
        fill: #c5783e;
      }

      .cls-4 {
        fill: #f9dd8f;
      }

      .cls-5 {
        fill: #a6d0d9;
      }

      .cls-6 {
        fill: #e59501;
      }

      .cls-7 {
        fill: #c9783d;
      }

      .cls-8 {
        fill: #ebe4d6;
      }

      .cls-9 {
        fill: #954a2b;
      }

      .cls-10 {
        fill: #f1ffff;
      }

      .cls-11 {
        fill: #fdc400;
      }

      .cls-12 {
        fill: #38150a;
      }

      .cls-13 {
        fill: #cae7ea;
      }

      .cls-14 {
        fill: #c86525;
      }
    </style>
  </defs>
  <g id="Layer_1-2" data-name="Layer 1">
    <g>
      <g>
        <path class="cls-11" d="m358.71,186.37c.15.06.3.12.45.18,110.5,42.16,110.5,172.16-7.32,208.79-.18.06-.36.11-.54.17,84.92-45.55,80.84-151.05,7.41-209.14Z"/>
        <path class="cls-9" d="m413.32,402.11c.45,1.54-1.78,2.84-2.75,3.34-6.51,3.27-21.99,3.8-40.57-6.19,5.17-1.99,10.22-4.14,15.12-6.44,20.64,1.81,27.49,6.83,28.21,9.3Z"/>
        <path class="cls-9" d="m334.87,410.23c26.39,10.53,31.42,18.11,31.13,20.14-.11.75-1.79,1.56-4.19,2.01-1.52.29-3.26.43-5.17.43-11.53,0-29.19-5.44-41.85-19.14,6.62-1.02,13.14-2.25,19.54-3.69.17.09.35.17.54.25Z"/>
        <path class="cls-9" d="m277.9,417.1c33.05,22.6,31.12,30.12,31.08,30.18-.09.17-1.94,1.16-7.41.63-16.64-1.62-42.26-14.12-49.9-30.97,5.1.23,10.17.35,15.2.35,3.69,0,7.36-.07,11.02-.19Z"/>
        <path class="cls-9" d="m229.42,445.55c-.27.11-2.22.29-6.08-1.3-9.23-3.82-24.45-16.45-29.84-35.24,6.51,1.52,13.14,2.83,19.88,3.94,17.92,22.88,17.24,31.53,16.04,32.6Z"/>
        <path class="cls-11" d="m498.72,288.66l-35.4,15.48c.18-1.26.35-2.53.47-3.79.92-9.43.24-18.79-1.96-27.98l36.9,16.3Z"/>
        <path class="cls-9" d="m213.46,195.77c1.76,1.16,2.8,3.23,1.35,4.93,0,0-.02.01-.02.02-1.68,1.92-4.91,1.88-7.39,1.2-58.37-15.96-87.49-74.26-81.93-121.42,4.71-39.95,31.8-66.46,72.47-70.93,7.54-.83,12.86.72,14.6,4.25,1.66,3.38-.16,7.6-4.33,10.05-32.12,18.82-50.39,46.02-51.46,76.6-.61,17.3,4.34,35.26,14.29,51.94,3.64,6.1,7.92,11.98,12.76,17.56.13.17.27.33.42.48,8.26,9.43,18.13,17.99,29.23,25.31Z"/>
        <path class="cls-13" d="m290.28,90.38c-1.56,5.67-3.18,11.23-4.76,16.43-6.44,21.33-13.53,38.66-20.6,50.39-9.6-.45-19.12-.47-28.54-.09-3.03-7.97-5.6-18.47-7.64-31.27-5.64-35.42,3.36-66.95,24.66-86.49,10.38-9.52,22.76-15.2,33.16-15.2h.12c3.57.02,5.96.86,7.75,2.72,8.48,8.81,3.05,37.06-4.02,62.99-.06.18-.11.36-.14.53Z"/>
        <path class="cls-13" d="m324.17,165.45c10.43-6.92,21.64-15.49,33.29-25.45,43.04-21.63,87.23-28.68,105.21-22.96,3.92,1.24,6.21,2.97,6.98,5.26.02.05.74,5.05-29.3,17.34-20.31,8.3-47.6,17.11-71.68,24.89-7.81,2.52-15.21,4.92-22.11,7.2-7.26-2.36-14.74-4.46-22.39-6.27Z"/>
        <path class="cls-13" d="m310.18,162.47c-10.73-2.03-21.75-3.52-32.97-4.46,6.83-12.17,13.38-28.59,19.53-48.97,1.72-5.71,3.27-11.08,4.67-16.16,29.42-40.96,72.46-62.34,102.19-65.36,11.16-1.13,19.93.43,24.71,4.41,4.3,3.59,7.21,9.4-3.93,25.26-9.98,14.19-29.26,33.52-55.16,58.18-21.21,20.2-41.57,36.44-59.04,47.11Z"/>
        <path class="cls-8" d="m272.57,293.53c3.55.11,6.32,2.52,6.2,5.4-.12,2.88-3.1,5.13-6.65,5.03-3.55-.1-6.32-2.52-6.19-5.4.12-2.88,3.1-5.13,6.65-5.03Z"/>
        <path class="cls-8" d="m260.95,271.26c6.95.2,12.38,4.93,12.13,10.56-.24,5.63-6.07,10.04-13.02,9.84-6.94-.2-12.37-4.93-12.12-10.56.24-5.63,6.07-10.04,13.01-9.84Z"/>
        <path class="cls-8" d="m109.19,287.33c-6.94-.2-12.38-4.93-12.13-10.56.25-5.63,6.08-10.04,13.02-9.84,6.94.2,12.38,4.93,12.13,10.56-.25,5.63-6.08,10.04-13.02,9.84Z"/>
        <path class="cls-11" d="m64.03,274.53c-3.12,31.87,13.92,63.21,48,88.23,27.94,20.52,64.55,34.78,105.15,41.26.53.02,1.06.1,1.55.23,9.04,1.39,18.25,2.41,27.63,3.01,5.02.33,10.01.53,14.96.62,60.96-17.56,98.2-55.27,103.08-105.25,5.27-54.05-29.79-109.73-83.06-134.82-3.78-.38-7.57-.7-11.39-.94-24.36-1.58-48.27-.35-71.2,3.62,6.46,6.57,13.82,12.64,21.98,18.02,6.76,4.45,8.29,11.99,3.57,17.53-.02.02-.04.04-.05.05-3.14,3.65-8.2,5.63-13.8,5.63-2.18,0-4.45-.3-6.73-.92-19.46-5.32-36.64-14.85-50.83-28.04-51.99,19.44-85.11,53.54-88.87,91.78Zm172.09,23.17c1-22.71,20.04-40.6,42.52-39.95,22.49.65,39.92,19.58,38.93,42.29-.99,22.71-20.03,40.6-42.52,39.95-22.49-.65-39.92-19.58-38.93-42.29Zm-64.5,15.07c0-2.59,2.58-4.68,5.77-4.68s5.77,2.1,5.77,4.68c0,5.95,5.97,10.79,13.3,10.79,7.33,0,13.3-4.84,13.3-10.79,0-2.59,2.58-4.68,5.77-4.68s5.77,2.1,5.77,4.68c0,11.11-11.14,20.15-24.84,20.15-13.7,0-24.84-9.04-24.84-20.15Zm-43.86-59.36c22.49.64,39.92,19.58,38.93,42.29-.99,22.71-20.03,40.6-42.51,39.95-22.49-.65-39.92-19.58-38.93-42.29.99-22.71,20.03-40.6,42.52-39.95Z"/>
        <path class="cls-9" d="m63.2,21.15c7.1-2.22,12.71-1.71,15.41,1.4,2.58,2.98,2.01,7.42-1.35,10.58-25.07,23.55-35.14,51.35-29.14,80.38,6.32,30.52,30.33,59.02,64.89,77.47-5.15,3.1-10.02,6.37-14.59,9.79C44.4,182.92,11.89,130.46,11.55,89.03c-.16-19.28,6.33-53.74,51.66-67.88Z"/>
        <path class="cls-8" d="m121.69,289.2c3.55.1,6.32,2.52,6.2,5.4-.12,2.88-3.11,5.13-6.65,5.03-3.55-.11-6.32-2.52-6.2-5.4.12-2.88,3.11-5.13,6.65-5.03Z"/>
      </g>
      <g>
        <path class="cls-5" d="m346.27,46.22c16.54-14.75,41-23.44,65.58-23.29,6.13.04,12.58.7,17.51,3.65,9.83,5.9,10.63,19.2,5.47,27.54-6.9,11.14-60.39,23.72-88.57-7.9Z"/>
        <path class="cls-5" d="m381.4,110.75c-2.81-28.72-73.47-28.41-91.6,13.96-5.56,12.99-11.12,25.99-16.67,38.98,8.21-.61,16.42-1.22,24.64-1.83,4.7-.35,9.39,3.36,14.02,2.63,27.46-4.28,49.13-29.44,62.2-48.03"/>
        <path class="cls-1" d="m165.68,142.26c4.56,19.04-6.05,25.45-26.27,5.39l-3.07,2.17,23.03,30.16s16.31,14.4,17.99,14.59c1.68.19,32.38,11.09,32.38,11.09l11.58-1.56-1.98-5.84-5.03-7.39-17.28-13.62-18.2-20.04-13.14-14.94Z"/>
        <path class="cls-1" d="m181.62,44.5c8.68-17.34-18.32-19.2-38.38-7.34v-4.85s17.38-16.63,17.38-16.63l28.24-9.48,25.01-1.75s.58,10.51,1.64,10.65-2.54,14.74-2.54,14.74l-23.21,10.8-8.14,3.88Z"/>
        <path class="cls-1" d="m68.57,192.62l-28.08-27.2,1.59-2.59c23.53,17.53,33.98,10.05,26.13-8.27l15.62,13.28,21.52,17.74,12.67,7.47c-8.1,3.64-15.81,7.96-22.57,13.18-3.53-.74-6.09-1.24-6.53-1.24-1.7,0-20.36-12.37-20.36-12.37Z"/>
        <path class="cls-1" d="m57.66,57.71c5.55-18.17-22.13-16.89-39.91-2.84l-.85-4.8,14.29-18.47,26.29-12.65,24.44-4.62s2.41,10.33,3.49,10.36c1.08.02.07,14.88.07,14.88l-21.08,13.36-6.75,4.78Z"/>
        <path class="cls-6" d="m214.29,211.39c44.01,0,33.64-30.99,4.23-45.19h-24.98s15.06,20.18,15.06,20.18l10.73,11.88"/>
        <path class="cls-6" d="m233.82,176.46c192.08,54,96.05,235.81-37.05,223.57l5.4,7.53,42.81,2.43s26.71-.54,28.11,0c1.4.54,52.85-17.17,52.85-17.17l44.05-45.62v-36.48s8.84-31.81,8.84-31.81v-25.5c-27-46.55-84.65-81.79-115.9-90.93-8.57-2.51-35.07.73-44.16,2.13-12.78,1.97,8.72,6.55,15.06,11.86Z"/>
        <path class="cls-6" d="m439.24,309.81c-2.48,15.21-25.86,14.91-25.86-1.71l-13.86-2.93-20.69,43.48-45.15,44.16,12.41,2.7,12.23,2.31,28.14-11.67,21.51-14.01,20.33-16.2,12.84-20.72"/>
        <path class="cls-6" d="m475.61,304.14c9.32-8.35,9.4-21.05.18-29.47l-15.47-7.59s2.65,22.33,1.5,26.56c-1.14,4.23-6.72,18.24-6.72,18.24l16.01-3.94"/>
        <path class="cls-4" d="m152.89,182.75c-95.03,37.98-105.14,144.92-18.35,194.2l-49.34-29.47-18.67-31.81-10.07-22.15-1.97-31.29,13.48-24.78,27.5-31.23,32.43-17.44"/>
        <path class="cls-4" d="m419.9,230.07c-12.83-17.3-34.59-23.1-31.33-12.57l-26.11-11.7-22.49-24.37s17.27-.88,17.63,0c.36.88,15.29,7.36,15.29,7.36l25.9,9.71,17.45,12.89,3.65,8.13"/>
        <path class="cls-6" d="m136.09,319.03c0,1.34,1.65,1.34,2.47,1.34,13.19-18.06,9.89-37.45,4.12-57.52-.95-2.83-2.4-5.26-4.28-7.38,19.24,3.72,33.3,21.11,32.4,41.57-.99,22.71-20.03,40.6-42.51,39.95-5.84-.17-11.33-1.58-16.25-3.95,9.67-2.23,17.5-8.12,24.04-14.02Z"/>
        <path class="cls-6" d="m299.34,317.02c11.81-18.55,1.16-40.85-14.21-57.79,21.33,1.86,37.52,20.24,36.56,42.15-.99,22.71-20.03,40.6-42.52,39.95-7.03-.2-13.57-2.19-19.2-5.53,16.12-.93,32.88-9.14,39.37-18.78Z"/>
        <path class="cls-10" d="m234.97,60.36c1.67,3.1,3.22,5.99,4.69,8.69.79,1.46,1.56,2.87,2.29,4.23,9.7-23.94,27.6-39.37,52.48-46.43l3.5-2.72-13.01-4.35h-15s-7,7.36-7,7.36l-18.94,14.49-7.91,16.07-1.1,2.65Z"/>
        <path class="cls-10" d="m218.76,99.13l11.43,37.62c1.11-1.76,2.35-3.48,3.64-5.17-.86-18.34.75-34.34,4.62-48.02-1.83-3.5-3.94-7.4-6.32-11.81-.35-.66-.72-1.32-1.08-1.99l-12.28,29.37Z"/>
        <path class="cls-10" d="m232.12,71.75c2.38,4.41,4.49,8.31,6.32,11.81,1.01-3.58,2.18-7.01,3.51-10.27-.73-1.36-1.5-2.77-2.29-4.23-1.47-2.7-3.03-5.59-4.69-8.69l-3.93,9.4c.36.68.73,1.34,1.08,1.99Z"/>
        <path class="cls-10" d="m233.82,148.69l2.56,8.42c-.62-4.15-1.13-8.19-1.53-12.15-.48,1.22-.82,2.46-1.02,3.73Z"/>
        <path class="cls-10" d="m230.19,136.75l3.63,11.94c.2-1.26.54-2.5,1.02-3.73-.49-4.59-.82-9.06-1.01-13.38-1.29,1.69-2.52,3.41-3.64,5.17Z"/>
        <path class="cls-10" d="m262.92,162.47l24.88-1.52c0-3.32.24-6.69.7-10.07-3.64,3.08-7.54,6.15-11.68,9.2-.79.58-1.78.87-2.77.87s-2.05-.31-2.84-.92c-1.57-1.21-1.71-3.19-.34-4.55l1.88-1.85c.53-.52,1.21-.88,1.96-1.07,5.59-4.28,11.18-8.98,16.39-14.01,4.67-16.47,14.09-33,26.56-47.86.29-6.52-.91-13.2-3.98-19.94l-7.78,6.79-9.94,19.89-13.56,40.45-19.48,24.59Z"/>
        <path class="cls-10" d="m319.54,65.62c.49.34.89.78,1.15,1.3,2.44,4.95,4.02,9.99,4.77,15.11,28.48-29.51,68.9-50.18,106.02-46.01l.66-3.73-7.62-8.16h-27.6s-18.09,6.41-18.09,6.41l-47.85,25.1-11.43,9.98Z"/>
        <path class="cls-10" d="m317.66,90.68c2.49-2.96,5.09-5.85,7.8-8.65-.74-5.12-2.33-10.17-4.77-15.11-.26-.51-.65-.96-1.15-1.3l-5.87,5.12c3.08,6.74,4.27,13.42,3.98,19.94Z"/>
        <path class="cls-10" d="m271.2,160.02c.79.62,1.82.92,2.84.92s1.98-.29,2.77-.87c4.15-3.06,8.04-6.12,11.68-9.2.54-4.09,1.42-8.21,2.6-12.33-5.21,5.04-10.8,9.73-16.39,14.01-.75.19-1.43.55-1.96,1.07l-1.88,1.85c-1.38,1.36-1.23,3.34.34,4.55Z"/>
        <path class="cls-10" d="m455.1,135.61c7.57-18.58-28.96-20.48-96.95,4.04,0,0,7.28-12.51,8.76-12.8,1.48-.29,38.18-11.72,38.18-11.72l33.82-4.85s33.1,5.16,33.1,6.2,2.16,7.74,2.16,7.6c0-.14-13.31,9.49-13.31,9.49l-5.76,2.04Z"/>
        <path class="cls-5" d="m298.76,78.15c-48.44,4.13-71.04,30.61-68.88,73.23.21,4.16.55,8.87,4.77,11.24l36.56-2.61,14.66-41.63,5.24-19.84"/>
        <path class="cls-5" d="m419.9,148.69c-28.85-18.68-70.9-14.87-93.96,8.51l-9.48,9,14.52,11.44s26.1-4.52,27.17-4.67c1.07-.15,51.08-17.95,51.08-17.95l10.67-6.33Z"/>
        <path class="cls-2" d="m337.02,123.62c5.13-7.64,14.06-13.23,24.3-15.7,5.78-1.39,11.82-1.71,17.78-1.01,1.1.13,1.71,1.26,1.44,2.06-.33.96-1.43,1.3-2.54,1.17-9.46-1.11-19.32,1.08-27.05,5.57-7.81,4.54-12.83,11.61-14.45,19.24-.92,4.32-.61,8.81.85,13.03.72,2.08-3.26,2.96-3.98.89-2.9-8.39-1.49-17.6,3.64-25.24Z"/>
        <path class="cls-2" d="m304.92,163.09c2.2-9.6,5.2-19.07,8.99-28.34,3.7-9.04,7.98-18.07,13.49-26.49,5.08-7.76,11.62-14.93,20.37-20.21,4.15-2.5,8.79-4.5,13.72-5.78,5.68-1.47,11.7-1.81,17.63-1.96,11.08-.28,24.21.01,32.57-6.97,1.85-1.55,4.76.82,2.92,2.36-7.37,6.16-18.37,7.48-28.46,7.79-5.9.18-11.87.07-17.71.87-5.15.7-10,2.16-14.47,4.34-9.02,4.39-15.83,11.1-21.06,18.4-5.75,8.04-10.02,16.81-13.77,25.56-4.38,10.21-7.8,20.69-10.24,31.32-.2.89-1.53,1.39-2.54,1.17-1.15-.26-1.64-1.17-1.44-2.06Z"/>
        <path class="cls-2" d="m348.34,73.05s0,0,0,0c0-.02.07-.43.07-.45,0,0,0,0,0,0,0,0,0-.02,0-.02,0,0,0,0,0,0,.01-.02.2-.38.21-.4,0,0,0,0,0,0,0,0,0,0,0-.01,0,0,0,0,0,0,0,0,0,0,0,0,.05-.06.11-.11.16-.17.05-.06.11-.11.16-.17,0,0,0,0,.01-.01.06-.05.25-.16.22-.14-.03.02.15-.1.22-.14,0,0,0,0,0,0,0,0,0,0,0,0,.03-.01.46-.16.5-.17,0,0,.01,0,.02,0,0,0,0,0,0,0,.03,0,.52-.06.55-.06,0,0,0,0,0,0,0,0,.01,0,.02,0,.28,0,.55.04.79.14.26.07.48.18.66.35,0,0,.01.01.02.02.03.02.06.03.08.05.26.21.43.45.53.74.02.07.05.29.04.23,0-.06.03.15.04.23,0,0,0,0,0,0,0,0,0,0,0,0,0,.01-.07.44-.07.45,0,0,0,0,0,0,0,0,0,0,0,.01-.03.07-.12.24-.11.21-.01.02-.07.14-.11.2,0,0,0,0,0,.01,0,0,0,0,0,0-.05.06-.18.19-.16.17.04-.04-.11.12-.16.17,0,0,0,0-.01.01,0,0,0,0-.01,0-.02.02-.39.25-.42.26,0,0,0,0,0,0,0,0,0,0,0,0,0,0,0,0-.01,0,0,0,0,0,0,0-.03,0-.47.16-.49.17,0,0,0,0,0,0-.01,0-.02,0-.03,0-.02,0-.53.06-.55.06,0,0,0,0,0,0,0,0,0,0,0,0,0,0-.01,0-.02,0-.01,0-.54-.06-.55-.06,0,0,0,0,0,0,0,0,0,0,0,0,0,0,0,0,0,0,0,0,0,0,0,0,0,0,0,0,0,0-.16-.06-.33-.11-.49-.17,0,0,0,0-.01,0-.15-.08-.29-.17-.43-.27,0,0,0,0-.01,0-.12-.11-.24-.22-.33-.35,0,0,0,0,0-.01,0,0-.2-.39-.21-.4,0,0,0,0,0,0,0,0,0,0,0,0,0,0,0,0,0-.01-.03-.15-.07-.3-.07-.46,0,0,0,0,0-.01Z"/>
        <path class="cls-2" d="m392.26,72.55s0,0,0-.01c.02-.15.04-.3.07-.45,0,0,0-.01,0-.02.06-.14.12-.29.22-.42.13-.19.31-.35.53-.47.2-.15.43-.25.7-.3.27-.07.55-.08.82-.03.27.01.53.08.77.2.14.09.28.17.42.26.03.03.05.06.08.09.2.11.36.26.48.43.07.13.14.27.21.4.1.3.1.59,0,.89-.07.13-.14.27-.21.4-.18.25-.43.45-.74.6,0,0-.01,0-.02,0-.06.02-.2.07-.25.09-.04.02-.19.07-.25.09,0,0,0,0-.01,0-.18.04-.4.05-.57.06,0,0-.01,0-.02,0-.19,0-.38-.04-.57-.06,0,0-.01,0-.02,0-.18-.04-.36-.12-.51-.17,0,0-.01,0-.02,0,0,0-.01,0-.02-.01-.15-.09-.3-.17-.43-.27,0,0-.01,0-.02-.01,0,0,0,0,0,0,0,0,0,0,0,0,0,0,0,0,0,0-.11-.11-.21-.23-.32-.34,0-.01-.02-.02-.02-.03-.04-.07-.1-.2-.11-.2,0,0-.07-.14-.11-.2,0,0,0,0,0,0,0,0,0-.01,0-.02-.02-.07-.05-.28-.04-.23,0-.05-.03-.15-.04-.23,0,0,0,0,0-.01Z"/>
        <path class="cls-2" d="m381.36,52.01c.08-.21.23-.39.43-.54.19-.16.41-.28.66-.35.25-.1.51-.15.79-.14.18.02.37.04.55.06.35.08.65.22.91.43.11.11.21.23.32.34.19.26.28.54.28.84v.21c.02.23-.04.44-.17.64-.08.21-.23.39-.43.54-.19.16-.41.28-.66.35-.25.1-.51.15-.79.14-.18-.02-.37-.04-.55-.06-.35-.08-.65-.22-.91-.43-.11-.11-.21-.23-.32-.34-.19-.26-.28-.54-.28-.84,0-.07,0-.14-.01-.21-.01-.23.05-.44.18-.64Z"/>
        <path class="cls-2" d="m260.18,113.68c8.7-11.78,24.52-18.23,34.23-29.3,2.44-2.78,8.16-.11,5.7,2.7-9.17,10.46-23.76,16.78-32.68,27.33-10.77,12.74-10.41,28.92-10.09,43.72.07,3.44-6.52,3.44-6.6,0-.32-15.04-.4-31.12,9.45-44.46Z"/>
        <path class="cls-2" d="m225.6,135.32c10.88-6.88,16.14-17.78,16.12-28.81-.02-12.96-6.95-25.11-15.27-35.88-2.26-2.93,3.45-5.62,5.7-2.7,9.13,11.82,16.53,25.35,16.16,39.57-.31,11.98-6.2,24.11-18.04,31.61-3.31,2.09-8.01-1.67-4.66-3.78Z"/>
        <path class="cls-2" d="m265.61,54.35c.16-.45.44-.85.85-1.18.11-.1.22-.19.32-.29.3-.26.65-.45,1.06-.55.39-.17.82-.24,1.27-.23.45-.01.88.06,1.27.23.41.11.76.29,1.06.55.17.18.34.36.52.54.3.42.45.87.45,1.35-.04.24-.08.47-.12.71-.16.45-.44.85-.85,1.18-.11.1-.22.19-.32.29-.3.26-.65.45-1.06.55-.39.17-.82.24-1.27.23-.45.01-.88-.06-1.27-.23-.41-.11-.76-.29-1.06-.55-.17-.18-.34-.36-.52-.54-.3-.42-.45-.87-.45-1.35.04-.24.08-.47.12-.71Z"/>
        <path class="cls-2" d="m340.79,171.84c8.59-13.23,18.18-27.38,35.4-34.3,8.14-3.27,16.78-4.3,25.74-3.11,10.95,1.45,21.68,4.82,32.28,7.43,4.05,1,2.32,6.16-1.75,5.16-17.27-4.26-36.67-11.9-54.1-4.38-15.52,6.7-23.99,19.76-31.87,31.9-1.98,3.05-7.67.35-5.7-2.7Z"/>
        <path class="cls-7" d="m26.43,70.99c1.42-4.59,10.17-2.65,8.75,1.96-5.17,16.75-4.29,34.18,2.39,50.56,1.84,4.51-6.92,6.44-8.75,1.96-7.17-17.6-7.94-36.51-2.39-54.47Z"/>
        <path class="cls-7" d="m147.07,56.08c2.73-4.19,10.56-.47,7.83,3.71-9.49,14.57-12.77,31.46-9.09,47.69,1.05,4.63-7.69,6.61-8.75,1.96-4.13-18.25-.69-36.93,10.01-53.35Z"/>
        <path class="cls-9" d="m48.48,31.1c.25-.62.67-1.16,1.27-1.61.56-.49,1.22-.83,1.98-1.03.73-.31,1.53-.46,2.38-.43.55.06,1.09.12,1.64.18,1.04.24,1.95.67,2.72,1.29.32.34.64.67.96,1.01.56.78.84,1.62.84,2.52-.01.15-.02.29-.04.44.03.68-.14,1.32-.53,1.92-.25.62-.67,1.15-1.27,1.6-.56.48-1.21.83-1.97,1.03-.73.31-1.52.45-2.36.43-.54-.06-1.09-.12-1.63-.18-1.04-.24-1.94-.66-2.7-1.28-.32-.34-.64-.67-.96-1.01-.55-.78-.83-1.61-.84-2.51-.01-.15-.02-.29-.04-.44-.03-.69.14-1.33.53-1.93Z"/>
        <path class="cls-9" d="m67.4,23.71c5.06,0,5.07,6.38,0,6.38s-5.07-6.38,0-6.38Z"/>
        <path class="cls-9" d="m199.29,13.5c5.29,0,5.3,6.67,0,6.67-5.29,0-5.3-6.67,0-6.67Z"/>
        <path class="cls-9" d="m177.45,18.35c1.04-1.44,2.98-2.34,5.03-2.34s3.99.9,5.03,2.34c.53.74.79,1.53.8,2.39,0,.85-.27,1.65-.8,2.39-.01.02-.02.04-.03.05-.52.71-1.21,1.27-2.08,1.69-.9.43-1.88.64-2.92.64-1.05,0-2.02-.22-2.92-.64-.87-.42-1.56-.98-2.08-1.69,0-.02-.02-.04-.03-.05-.53-.74-.79-1.53-.8-2.39,0-.85.27-1.65.8-2.39Z"/>
        <path class="cls-9" d="m72.99,180.35c.31-.9.87-1.68,1.68-2.34.44-.28.88-.55,1.32-.83,1.02-.48,2.12-.72,3.3-.72.9-.03,1.74.12,2.52.46.81.21,1.51.58,2.1,1.1.64.48,1.09,1.05,1.35,1.7.41.63.6,1.31.56,2.04-.08.47-.16.94-.23,1.41-.31.9-.87,1.68-1.68,2.34-.44.28-.88.55-1.32.83-1.02.48-2.12.72-3.3.72-.9.03-1.74-.12-2.52-.46-.81-.21-1.51-.58-2.1-1.1-.64-.48-1.09-1.05-1.35-1.7-.41-.63-.6-1.31-.56-2.04.08-.47.16-.94.23-1.41Z"/>
        <path class="cls-9" d="m91.36,183.22c4.1,0,4.11,5.17,0,5.17-4.1,0-4.11-5.17,0-5.17Z"/>
        <path class="cls-9" d="m167.55,171.27c.28-.7.76-1.31,1.44-1.82.63-.55,1.38-.94,2.25-1.17.83-.35,1.73-.52,2.69-.49.62.07,1.24.13,1.86.2,1.18.27,2.21.75,3.08,1.46.36.38.73.76,1.09,1.15.63.88.95,1.84.95,2.86,0,.01,0,.02,0,.03.04.78-.16,1.51-.6,2.18-.28.7-.76,1.31-1.44,1.82-.63.55-1.38.94-2.25,1.17-.83.35-1.73.52-2.69.49-.62-.07-1.24-.13-1.85-.2-1.18-.27-2.21-.75-3.08-1.46-.36-.38-.73-.76-1.09-1.15-.63-.88-.95-1.84-.95-2.86,0-.01,0-.02,0-.03-.04-.78.16-1.51.6-2.18Z"/>
        <path class="cls-9" d="m182.36,181.66c.14-.41.4-.77.77-1.08.38-.3.82-.51,1.33-.63.19-.05.37-.1.56-.15.48-.1.96-.1,1.44,0,.46.1.86.29,1.2.57.34.27.57.6.7.97.13.39.13.78,0,1.17-.06.15-.13.3-.19.45-.14.41-.4.77-.77,1.08-.38.3-.82.51-1.33.63-1.04.23-2.17-.01-2.93-.63-.76-.62-1.06-1.54-.77-2.38Z"/>
        <path class="cls-14" d="m310.47,367.23c5.24,0,5.25,6.61,0,6.61-5.24,0-5.25-6.61,0-6.61Z"/>
        <path class="cls-14" d="m354.27,290.35c.15-.44.42-.81.82-1.14l.64-.4c.5-.23,1.03-.35,1.6-.35.44-.01.84.06,1.22.22.39.1.73.28,1.02.53.31.23.53.51.66.83.2.31.29.64.27.99-.04.23-.08.46-.11.68-.15.44-.42.81-.82,1.14-.21.13-.43.27-.64.4-.5.23-1.03.35-1.6.35-.44.01-.84-.06-1.22-.22-.39-.1-.73-.28-1.02-.53-.31-.23-.53-.51-.66-.83-.2-.31-.29-.64-.27-.99.04-.23.08-.46.11-.68Z"/>
        <path class="cls-11" d="m336.37,337.06c8.66,0,8.68,10.92,0,10.92s-8.68-10.92,0-10.92Z"/>
        <path class="cls-11" d="m408.66,342.31c.19-.54.53-1.01,1.02-1.41.27-.17.53-.33.8-.5.62-.29,1.28-.44,1.99-.44.54-.02,1.05.08,1.52.28.49.13.91.35,1.27.66.39.29.66.63.82,1.03.25.38.36.79.34,1.23-.05.28-.09.57-.14.85-.19.54-.53,1.01-1.02,1.41-.27.17-.53.33-.8.5-.62.29-1.28.44-1.99.44-.54.02-1.05-.08-1.52-.28-.49-.13-.91-.35-1.27-.66-.39-.29-.66-.63-.82-1.03-.25-.38-.36-.79-.34-1.23.05-.28.09-.57.14-.85Z"/>
        <path class="cls-6" d="m418.89,280.42s.03-.07.04-.1c.24-.46.48-.93.72-1.39.31-.48.8-.87,1.22-1.3l1.45-.91c.82-.42,1.71-.65,2.66-.69.63-.14,1.27-.14,1.9,0,.95.04,1.84.26,2.66.69l1.45.91c.37.39.75.78,1.12,1.18.52.67.81,1.39.85,2.16.07.24.1.48.12.72.15.79.11,1.58-.15,2.37-.21.73-.63,1.37-1.24,1.91-.49.61-1.14,1.09-1.94,1.45-1.08.51-2.25.76-3.5.77-.74.03-1.48-.09-2.2-.24-.58-.2-1.16-.4-1.74-.6-.03,0-.05-.02-.08-.03-1.09-.52-1.95-1.22-2.6-2.11-.19-.22-.32-.47-.4-.75-.45-.7-.66-1.46-.63-2.27,0-.03,0-.07,0-.1,0-.56.07-1.14.28-1.67Z"/>
        <path class="cls-6" d="m411,244.69c.15-.44.43-.82.82-1.15.22-.14.43-.27.65-.41.5-.23,1.04-.35,1.61-.35.44-.01.85.06,1.23.22.4.1.74.28,1.03.54.31.24.53.51.66.84.2.31.29.64.28,1l-.11.69c-.15.44-.43.82-.82,1.15-.22.14-.43.27-.65.41-.5.23-1.04.35-1.61.35-.44.01-.85-.06-1.23-.22-.4-.1-.74-.28-1.03-.54-.31-.24-.53-.51-.66-.84-.2-.31-.29-.64-.28-1,.04-.23.08-.46.11-.69Z"/>
        <path class="cls-14" d="m466.46,287.28c.25-.72.7-1.34,1.35-1.87.35-.22.71-.44,1.06-.66.82-.38,1.7-.58,2.64-.58.72-.02,1.39.1,2.02.37.65.17,1.21.46,1.68.88.51.38.87.84,1.08,1.37.33.51.48,1.05.45,1.63l-.19,1.13c-.25.72-.7,1.34-1.35,1.87-.35.22-.71.44-1.06.66-.82.38-1.7.58-2.64.58-.72.02-1.39-.1-2.02-.37-.65-.17-1.21-.46-1.68-.88-.51-.38-.87-.84-1.08-1.37-.33-.51-.48-1.05-.45-1.63.06-.38.12-.75.19-1.13Z"/>
        <path class="cls-1" d="m229.95,434.84c-10.94-9.73-24.06-7.53-21.66,3.11l-18.71-16.55v-12.4s7.19-2.57,7.19-2.57l22.55,1.44,8.16,15.68"/>
        <path class="cls-1" d="m298.37,432.82c-19.33-12.25-33.48-3.04-21.52,7.27l-10.75-2.13-19.67-19.26,5.25-5.06,23.3-1.36,12.83,5.64"/>
        <path class="cls-1" d="m357.49,421.4c-17.09-12.4-35.45-1.12-19.5,8.96l-28.98-13.42s1.27-5.25,1.45-5.84c.18-.58,21.59-7.73,21.59-7.73l11.15,5.63"/>
        <path class="cls-1" d="m416.42,403.37c-15.83-7.86-35.07-1.02-26.98,5.63l-27.52-9.15s14.39-6.49,14.93-7.4,16.55-4.12,16.55-4.12l21.05,4.47,1.97,10.56Z"/>
        <path class="cls-3" d="m217.37,436.88c.19-.54.52-1,1.01-1.4.26-.17.53-.33.79-.5.61-.29,1.27-.43,1.97-.43.54-.02,1.04.07,1.51.27.49.13.9.35,1.26.66.38.29.65.63.81,1.02.24.38.36.79.34,1.22-.05.28-.09.56-.14.84-.19.54-.52,1-1.01,1.4-.26.17-.53.33-.79.5-.61.29-1.27.43-1.97.43-.54.02-1.04-.07-1.51-.27-.49-.13-.9-.35-1.26-.66-.38-.29-.65-.63-.81-1.02-.25-.38-.36-.79-.34-1.22.05-.28.09-.56.14-.84Z"/>
        <path class="cls-3" d="m289.73,439.54c.25-.72.7-1.35,1.35-1.88.36-.22.71-.45,1.07-.67.82-.39,1.71-.58,2.66-.58.72-.02,1.4.1,2.03.37.65.17,1.22.47,1.69.88.51.39.88.84,1.09,1.37.33.51.48,1.06.45,1.64-.06.38-.13.76-.19,1.14-.25.72-.7,1.35-1.35,1.88-.36.22-.71.45-1.07.67-.82.39-1.71.58-2.66.58-.72.02-1.4-.1-2.03-.37-.65-.17-1.22-.47-1.69-.88-.51-.39-.88-.84-1.09-1.37-.33-.51-.48-1.06-.45-1.64.06-.38.13-.76.19-1.14Z"/>
        <path class="cls-3" d="m281.36,435.51c.1-.29.28-.53.53-.74.14-.09.28-.18.42-.26.32-.15.67-.23,1.05-.23.29,0,.55.04.8.15.26.07.48.18.67.35.2.15.35.33.43.54.13.2.19.42.18.65-.02.15-.05.3-.07.45-.1.29-.28.53-.53.74-.14.09-.28.18-.42.26-.32.15-.67.23-1.05.23-.29,0-.55-.04-.8-.15-.26-.07-.48-.18-.67-.35-.2-.15-.35-.33-.43-.54-.13-.2-.19-.42-.18-.65.02-.15.05-.3.07-.45Z"/>
        <path class="cls-3" d="m345.91,425.39c.22-.62.61-1.17,1.17-1.63.31-.19.61-.38.92-.58.71-.33,1.47-.5,2.29-.5.63-.02,1.21.09,1.75.32.56.15,1.05.4,1.46.76.44.33.76.73.94,1.19.28.44.41.91.39,1.42-.05.33-.11.65-.16.98-.22.62-.6,1.17-1.17,1.63-.31.19-.61.38-.92.58-.71.33-1.47.5-2.29.5-.63.02-1.21-.09-1.75-.32-.56-.15-1.05-.4-1.46-.76-.44-.33-.76-.73-.94-1.19-.28-.44-.41-.91-.39-1.42.05-.33.11-.65.16-.98Z"/>
        <path class="cls-3" d="m401.13,401.9c2.87,0,2.88,3.62,0,3.62s-2.88-3.62,0-3.62Z"/>
        <path class="cls-11" d="m272.78,183.14c.38-.57.9-1.03,1.56-1.38.58-.43,1.27-.73,2.06-.88,1.07-.23,2.15-.23,3.22,0,.79.15,1.47.45,2.06.88.66.35,1.18.81,1.56,1.38.55.77.82,1.59.83,2.48,0,.89-.28,1.71-.83,2.48-.32.33-.63.66-.95.99-.76.61-1.65,1.03-2.67,1.26-1.07.23-2.15.23-3.22,0-.48-.17-.96-.33-1.45-.5-.03-.01-.05-.03-.08-.04-.89-.43-1.59-1-2.12-1.72-.53-.75-.8-1.55-.81-2.42.04-.95.23-1.72.83-2.54Z"/>
        <path class="cls-11" d="m336.91,228.19c3.6,0,3.61,4.54,0,4.54s-3.61-4.54,0-4.54Z"/>
        <path class="cls-14" d="m247.32,166.79c7.25,0,7.26,9.14,0,9.14s-7.26-9.14,0-9.14Z"/>
        <path class="cls-14" d="m216.02,174.39c8.39,0,8.4,10.58,0,10.58s-8.4-10.58,0-10.58Z"/>
        <path class="cls-14" d="m222.81,196.38c.24-.68.66-1.28,1.28-1.78.34-.21.67-.42,1.01-.63.78-.37,1.61-.55,2.51-.55.69-.02,1.32.09,1.92.35.62.16,1.15.44,1.6.83.49.37.83.8,1.03,1.3.31.48.45,1,.43,1.56-.06.36-.12.72-.18,1.07-.24.68-.66,1.28-1.28,1.78-.34.21-.67.42-1.01.63-.78.37-1.61.55-2.51.55-.69.02-1.32-.09-1.92-.35-.62-.16-1.15-.44-1.6-.83-.49-.37-.83-.8-1.03-1.3-.31-.48-.45-1-.43-1.56.06-.36.12-.72.18-1.07Z"/>
        <path class="cls-14" d="m313.74,205.1c.04-.26.09-.52.13-.78.07-.26.19-.53.39-.74.23-.34.54-.62.94-.83.35-.26.76-.44,1.24-.53l.97-.11c.66,0,1.27.14,1.84.4,0,0,0,0,0,0,.42.19.76.44,1.02.76.32.28.54.62.65,1,.04.26.09.52.13.78,0,.53-.17,1.03-.5,1.49,0,0,0,0,0,0-.19.2-.38.4-.57.6-.26.23-.56.38-.9.51-.02,0-.03.02-.05.03-.54.26-1.13.38-1.75.38-.63,0-1.21-.13-1.75-.38-.52-.25-.94-.59-1.25-1.01-.1-.11-.18-.34-.21-.39-.25-.47-.3-.51-.32-1.15,0,0,0-.02,0-.03,0,0,0-.01,0-.02Z"/>
        <path class="cls-4" d="m179.37,357.05c.31-.9.87-1.68,1.69-2.35.44-.28.89-.55,1.33-.83,1.02-.48,2.13-.72,3.31-.73.9-.03,1.75.13,2.53.46.81.21,1.52.58,2.11,1.1.64.48,1.09,1.05,1.36,1.71.41.63.6,1.32.57,2.05-.08.47-.16.94-.23,1.42-.31.9-.87,1.68-1.69,2.35-.44.28-.89.55-1.33.83-1.02.48-2.13.72-3.31.73-.9.03-1.75-.13-2.53-.46-.81-.21-1.52-.58-2.11-1.1-.64-.48-1.09-1.05-1.36-1.71-.41-.63-.6-1.32-.57-2.05.08-.47.16-.94.23-1.42Z"/>
        <path class="cls-4" d="m234.4,249.58c.06-.04.12-.09.18-.13,1.15-.84,2.75-.85,3.91,0,.06.04.12.09.18.13,1.98,1.46.39,4.17-2.13,4.17s-4.1-2.72-2.13-4.17Z"/>
        <path class="cls-4" d="m120.66,216.22c.36-1.05,1.02-1.96,1.97-2.74.52-.32,1.03-.65,1.55-.97,1.19-.56,2.48-.84,3.86-.85,1.05-.03,2.04.15,2.95.53.95.25,1.77.68,2.46,1.28.75.56,1.27,1.23,1.58,2,.48.74.7,1.54.66,2.39-.09.55-.18,1.1-.27,1.65-.36,1.05-1.02,1.96-1.97,2.74-.52.32-1.03.65-1.55.97-1.19.56-2.48.84-3.86.85-1.05.03-2.04-.15-2.95-.53-.95-.25-1.77-.68-2.46-1.28-.75-.56-1.27-1.23-1.58-2-.48-.74-.7-1.54-.66-2.39.09-.55.18-1.1.27-1.65Z"/>
        <path class="cls-4" d="m244.63,338.1c7.02,0,7.03,8.85,0,8.85-7.02,0-7.03-8.85,0-8.85Z"/>
        <path class="cls-1" d="m49.47,149.41c.02-.07.04-.14.07-.21.07-.13.13-.25.2-.38.12-.18.29-.33.5-.44.12-.1.26-.17.43-.2.23-.1.48-.14.75-.14l.52.06c.16.05.31.11.47.16.23.1.41.24.55.41.17.15.29.33.35.54.02.07.04.14.07.21.1.29.1.58,0,.87-.1.28-.27.52-.52.72-.14.09-.27.17-.41.26-.31.15-.65.22-1.02.22-.28,0-.54-.04-.78-.14-.25-.07-.47-.18-.65-.34-.52-.42-.7-1.02-.52-1.59Z"/>
        <path class="cls-1" d="m33.05,140.18c.03-.05.06-.11.08-.16.06-.19.16-.37.29-.55,0-.01.01-.03.02-.04,0,0,0,0,0,0,0-.01.01-.02.02-.03.28-.43.85-.87,1.37-1.11.59-.28,1.25-.42,1.94-.43.72,0,1.38.15,2.01.44.45.2.82.47,1.09.81.24.2.41.43.5.7.24.38.36.78.34,1.22l-.14.84c-.13.25-.26.5-.39.76-.24.37-.58.66-1,.89-.24.2-.53.33-.86.41-.46.2-.96.29-1.5.27-.35-.04-.69-.08-1.04-.11-.31-.11-.62-.21-.93-.32-.45-.2-.82-.47-1.09-.81-.24-.2-.41-.43-.5-.7-.24-.38-.36-.78-.34-1.22.05-.28.09-.56.14-.84Z"/>
        <path class="cls-1" d="m152.53,139.05c.14-.41.4-.76.77-1.07.2-.13.4-.25.6-.38.46-.22.96-.33,1.5-.33.41-.01.79.06,1.15.21.37.1.69.26.96.5.29.22.5.48.62.78.19.29.27.6.26.93l-.11.64c-.14.41-.4.76-.77,1.07-.2.13-.4.25-.6.38-.46.22-.96.33-1.5.33-.41.01-.79-.06-1.15-.21-.37-.1-.69-.26-.96-.5-.29-.22-.5-.48-.62-.78-.19-.29-.27-.6-.26-.93.04-.21.07-.43.11-.64Z"/>
        <path class="cls-1" d="m139.6,131.52c.19-.56.54-1.05,1.05-1.46.27-.17.55-.34.82-.52.64-.3,1.32-.45,2.06-.45.56-.02,1.08.08,1.57.28.51.13.94.36,1.31.68.4.3.68.65.84,1.06.26.39.37.82.35,1.27l-.15.88c-.19.56-.54,1.05-1.05,1.46-.27.17-.55.34-.82.52-.64.3-1.32.45-2.06.45-.56.02-1.08-.08-1.57-.28-.51-.13-.94-.36-1.31-.68-.4-.3-.68-.65-.84-1.06-.26-.39-.37-.82-.35-1.27l.15-.88Z"/>
      </g>
      <g>
        <path class="cls-12" d="m0,89.1c.2,24.29,9.77,49.96,26.95,72.27,16.3,21.17,38.33,37.47,62.69,46.51-21.61,18.86-34.73,41.59-37.11,65.9-3.42,34.84,14.96,68.9,51.75,95.92,21.44,15.74,47.65,27.98,76.75,36.11,2.79,14.78,10.73,25.73,17.02,32.38,8.06,8.51,17.83,14.6,26.14,16.29,1.57.32,3.09.48,4.53.48,4.25,0,7.81-1.38,10.11-3.99,5.61-6.37,2.12-18.43-10.34-35.91,3.58.41,7.18.78,10.81,1.08,3.94,12.87,15.23,22.18,24.34,27.86,11.32,7.05,25.33,12.11,36.57,13.2,1.57.15,3.02.22,4.35.22,9.98,0,13.68-3.9,15.02-6.43,4.11-7.72-4.25-19.17-25.49-34.84,2.71-.23,5.41-.49,8.09-.8,0,0,0,0,0,0,15.26,19.39,38.82,26.79,54.77,26.79,2.74,0,5.25-.22,7.46-.63,7.59-1.42,12.35-5.09,13.06-10.06,1.12-7.84-8.43-16.56-27.7-25.43,2.66-.77,5.3-1.57,7.92-2.42,15.17,9.54,29.81,13.39,41.61,13.39,6.91,0,12.85-1.32,17.36-3.58,6.36-3.2,9.38-8.35,7.91-13.44-1.95-6.69-10.83-11.79-25.01-14.62,32.17-18.3,53.37-42.45,61.23-69.45l52.8-23.08c1.86-.82,3.03-2.39,3.03-4.11,0-1.72-1.15-3.3-3.01-4.12l-55.72-24.61c-8.01-20.17-23.54-39.15-45.85-55.54-14.82-10.89-31.94-20.1-50.71-27.44,3.76-1.22,7.64-2.47,11.63-3.77,70.6-22.81,113.1-37.78,107.85-53.39-1.22-3.62-4.63-8.57-13.91-11.52-18.68-5.93-53.02-1.01-87.19,11.5,25.47-24.29,44.52-43.5,54.71-58,7.28-10.36,15.42-25.4,2.17-36.43-7.36-6.13-19.58-8.67-34.4-7.16-27.49,2.79-65.1,19.56-95.06,51.01,5.16-25.63,3.88-40.39-3.57-48.13-4.01-4.16-9.66-6.29-16.79-6.32-13.68-.05-29.4,6.81-42,18.37-7.19,6.59-13.26,14.58-17.95,23.51-.75.62-1.17,1.45-1.17,2.32-1.8,3.68-3.38,7.5-4.7,11.46-5.69,16.97-6.91,36.01-3.64,56.61,1.95,12.26,4.4,22.57,7.31,30.77-11.27.88-22.38,2.35-33.27,4.44-15.34-18.69-23.76-40.43-23.03-61.5.68-19.52,9.33-47.39,46.68-69.27,8.39-4.92,11.88-13.8,8.29-21.11-3.81-7.73-13.84-11.49-26.86-10.07-24.06,2.64-44.42,12.07-58.89,27.25-12.99,13.62-21.12,31.63-23.53,52.07-3.08,26.17,3.63,54.7,18.42,78.27,3.92,6.24,8.29,12.02,13.08,17.34-7.8,3.02-15.2,6.36-22.16,9.99-34.03-16.93-57.78-44.11-63.81-73.25-5.42-26.19,3.74-51.34,26.49-72.71,6.77-6.36,7.64-15.65,2.06-22.08-5.91-6.81-16.75-8.59-29.01-4.76C21.22,24.22-.31,52.18,0,89.1Zm461.82,183.26l36.9,16.3-35.4,15.48c.18-1.26.35-2.53.47-3.79.92-9.43.24-18.79-1.96-27.98Zm-248.36-76.59c1.76,1.16,2.8,3.23,1.35,4.93,0,0-.02.01-.02.02-1.68,1.92-4.91,1.88-7.39,1.2-58.37-15.96-87.49-74.26-81.93-121.42,4.71-39.95,31.8-66.46,72.47-70.93,7.54-.83,12.86.72,14.6,4.25,1.66,3.38-.16,7.6-4.33,10.05-32.12,18.82-50.39,46.02-51.46,76.6-.61,17.3,4.34,35.26,14.29,51.94,3.64,6.1,7.92,11.98,12.76,17.56.13.17.27.33.42.48,8.26,9.43,18.13,17.99,29.23,25.31Zm18.9-123.57c2.28,4.22,4.31,7.98,6.08,11.36,6.84,13.12,9.67,20.67,7.82,28.3-1.39,5.66-5.42,10.78-9.7,16.2-.92,1.16-1.84,2.33-2.74,3.52-1.14,1.5-2.22,3.02-3.23,4.56-.66-3.25-1.28-6.68-1.86-10.31-3.11-19.51-1.76-37.84,3.62-53.63Zm58.06,17.64c-.06.18-.11.36-.14.53-.27.97-.54,1.94-.81,2.9-2.2,2.64-5.34,4.82-9.13,7.43-11.56,7.98-27.27,18.84-27,56.16-5.69-.07-11.35.01-16.97.24-.92-2.41-1.79-5.05-2.62-7.92,0-.01,0-.02,0-.03.18-1.43.55-2.82,1.09-4.19,1.75-4.5,5.14-8.81,8.67-13.3,4.5-5.71,9.15-11.61,10.83-18.51,2.66-10.95-1.95-20.53-12.39-39.87-.73-1.36-1.5-2.77-2.29-4.23-1.09-2.01-2.23-4.12-3.43-6.35,4.29-8.93,10.03-16.82,17.17-23.37,10.38-9.52,22.76-15.2,33.16-15.2h.12c3.57.02,5.96.86,7.75,2.72,8.48,8.81,3.05,37.06-4.02,62.99Zm-4.73,15.96c.06-.04.11-.08.17-.12-.11.37-.23.76-.34,1.13-6.44,21.33-13.53,38.66-20.6,50.39-1.11-.05-2.22-.1-3.33-.14-.33-34.39,13.18-43.73,24.1-51.27Zm31.96-15.11c-.75,17.55-12.23,34-26.56,47.86-2.47,2.39-5.02,4.69-7.62,6.92,4.58-10.2,9.02-22.37,13.26-36.42,1.72-5.71,3.27-11.08,4.67-16.16,4.45-6.19,9.21-11.92,14.18-17.22,1.65,5.07,2.29,10.1,2.07,15.03Zm90.09-13.62c-6.21,2.93-13.54,3.4-21.86,3.93-26.06,1.67-58.37,3.74-78.82,80.9-9.06-1.62-18.33-2.85-27.74-3.7,3.21-2.43,6.27-4.87,9.17-7.32,12.98-10.97,22.72-22.09,29.02-33.16,6.94-12.19,9.59-24.14,7.93-35.68-.62-4.29-1.84-8.52-3.65-12.68,26.76-25.71,58.39-39.46,81.79-41.84,11.16-1.13,19.93.43,24.71,4.41,4.3,3.59,7.21,9.4-3.93,25.26-4.06,5.78-9.66,12.4-16.62,19.89Zm-9.09,9.5c-6.58,6.72-14.04,14.02-22.26,21.91-11.9-1.2-24.23,2.48-32.29,9.69-7.98,7.13-11.32,17.3-8.85,26.7-6.51,5.08-12.8,9.63-18.81,13.6,19.06-67.53,46.11-69.27,70.09-70.8,4.04-.26,8.12-.52,12.11-1.1Zm-48.44,36.09c4.88-4.36,12.04-7.11,19.33-7.62,0,0,0,0,0,0-9.15,8.73-18.15,16.72-26.82,23.85-.03-5.9,2.64-11.89,7.49-16.22Zm77.33,21.95c-20.56-7.13-34.43-8.46-47.01-4.65-12.8,3.87-23.97,13.22-36.72,30.9-6.4-2.01-12.95-3.83-19.64-5.41,10.43-6.92,21.64-15.49,33.29-25.45,43.04-21.63,87.23-28.68,105.21-22.96,3.92,1.24,6.21,2.97,6.98,5.26.02.05.74,5.05-29.3,17.34-4.02,1.64-8.32,3.31-12.81,4.98Zm-72.71,24.4c10.04-12.86,18.91-19.86,28.58-22.78,8.98-2.72,19.21-2.11,33.63,2.19-15.61,5.52-32.67,11.04-48.37,16.11-4.77,1.54-9.39,3.03-13.84,4.48Zm15.15,230.24c5.17-1.99,10.22-4.14,15.12-6.44,20.64,1.81,27.49,6.83,28.21,9.3.45,1.54-1.78,2.84-2.75,3.34-6.51,3.27-21.99,3.8-40.57-6.19Zm-18.69-3.74c84.92-45.55,80.84-151.05,7.41-209.14.15.06.3.12.45.18,110.5,42.16,110.5,172.16-7.32,208.79-.18.06-.36.11-.54.17Zm-36.51,18.16c6.62-1.02,13.14-2.25,19.54-3.69.17.09.35.17.54.25,26.39,10.53,31.42,18.11,31.13,20.14-.11.75-1.79,1.56-4.19,2.01-1.52.29-3.26.43-5.17.43-11.53,0-29.19-5.44-41.85-19.14Zm-63.12,3.26c5.1.23,10.17.35,15.2.35,3.69,0,7.36-.07,11.02-.19,33.05,22.6,31.12,30.12,31.08,30.18-.09.17-1.94,1.16-7.41.63-16.64-1.62-42.26-14.12-49.9-30.97Zm-58.16-7.94c6.51,1.52,13.14,2.83,19.88,3.94,17.92,22.88,17.24,31.53,16.04,32.6-.27.11-2.22.29-6.08-1.3-9.23-3.82-24.45-16.45-29.84-35.24Zm-40.62-226.25c14.19,13.2,31.37,22.73,50.83,28.04,2.28.62,4.54.92,6.73.92,5.61,0,10.66-1.98,13.8-5.63,0-.01.03-.03.05-.05,4.72-5.54,3.19-13.07-3.57-17.53-8.16-5.38-15.53-11.45-21.98-18.02.27-.05.55-.09.82-.14,92.84-15.8,176.81,48.41,164.25,137.1-9.74,68.76-95.79,112-176.76,90.15-27.8-7.5-53.61-19.1-75.03-34.83-34.09-25.02-51.13-56.36-48-88.23,3.75-38.24,36.87-72.34,88.87-91.78ZM11.55,89.03c-.16-19.28,6.33-53.74,51.66-67.88,7.1-2.22,12.71-1.71,15.41,1.4,2.58,2.98,2.01,7.42-1.35,10.58-25.07,23.55-35.14,51.35-29.14,80.38,6.32,30.52,30.33,59.02,64.89,77.47-5.15,3.1-10.02,6.37-14.59,9.79C44.4,182.92,11.89,130.46,11.55,89.03Z"/>
        <path class="cls-12" d="m85.24,293.37c-.99,22.71,16.44,41.65,38.93,42.29,22.48.64,41.52-17.24,42.51-39.95,1-22.71-16.43-41.65-38.93-42.29-22.49-.65-41.53,17.24-42.52,39.95Zm29.8.86c.12-2.88,3.11-5.13,6.65-5.03,3.55.1,6.32,2.52,6.2,5.4-.12,2.88-3.11,5.13-6.65,5.03-3.55-.11-6.32-2.52-6.2-5.4Zm7.17-16.73c-.25,5.63-6.08,10.04-13.02,9.84-6.94-.2-12.38-4.93-12.13-10.56.25-5.63,6.08-10.04,13.02-9.84,6.94.2,12.38,4.93,12.13,10.56Z"/>
        <path class="cls-12" d="m236.12,297.7c-.99,22.71,16.44,41.65,38.93,42.29,22.49.64,41.53-17.24,42.52-39.95.99-22.71-16.44-41.65-38.93-42.29-22.48-.65-41.52,17.24-42.52,39.95Zm29.81.86c.12-2.88,3.1-5.13,6.65-5.03,3.55.11,6.32,2.52,6.2,5.4-.12,2.88-3.1,5.13-6.65,5.03-3.55-.1-6.32-2.52-6.19-5.4Zm-17.98-17.46c.24-5.63,6.07-10.04,13.01-9.84,6.95.2,12.38,4.93,12.13,10.56-.24,5.63-6.07,10.04-13.02,9.84-6.94-.2-12.37-4.93-12.12-10.56Z"/>
        <path class="cls-12" d="m177.4,308.09c3.19,0,5.77,2.1,5.77,4.68,0,5.95,5.97,10.79,13.3,10.79,7.33,0,13.3-4.84,13.3-10.79,0-2.59,2.58-4.68,5.77-4.68s5.77,2.1,5.77,4.68c0,11.11-11.14,20.15-24.84,20.15-13.7,0-24.84-9.04-24.84-20.15,0-2.59,2.58-4.68,5.77-4.68Z"/>
      </g>
    </g>
  </g>
</svg>